{"asset":{"version":"2.0","generator":"VECTARY"},"nodes":[{"translation":[0,0.10492597774581489,-0.0017945441416924767],"scale":[0.00134429324336186,0.00134429324336186,0.00134429324336186],"rotation":[-0.7071067811865475,0,0,0.7071067811865476],"name":"Box & Sphere & Box 2 & Box 1","mesh":0},{"translation":[0,0.09454515573798879,1.4210854715202004e-17],"scale":[0.001,0.001,0.001],"rotation":[-0.7071067811865475,0,0,0.7071067811865476],"name":"Tube & Cylinder & Cone 3 & Cone 2 & Cone 1 & Cone","mesh":1}],"materials":[{"pbrMetallicRoughness":{"baseColorFactor":[0.25902733248960613,0.17013837322331243,0.05818717747368543,1],"metallicFactor":1,"roughnessFactor":1},"name":"Soft Royal","normalTexture":{"index":0,"scale":1,"extensions":{"KHR_texture_transform":{"offset":[0,0],"scale":[1,1],"rotation":0}},"texCoord":0},"emissiveFactor":[0,0,0],"alphaMode":"OPAQUE","doubleSided":false},{"pbrMetallicRoughness":{"baseColorFactor":[0.41514809165590655,0.3111804990579844,0.14497212559723088,1],"metallicFactor":1,"roughnessFactor":0.85},"name":"Aquarius","normalTexture":{"index":1,"scale":0.06,"extensions":{"KHR_texture_transform":{"offset":[0,0],"scale":[12,1],"rotation":0}},"texCoord":0},"emissiveFactor":[0,0,0],"alphaMode":"OPAQUE","doubleSided":false}],"textures":[{"sampler":0,"source":0},{"sampler":0,"source":1}],"images":[{"uri":"texture.jpg","mimeType":"image/jpeg"},{"uri":"texture_1.jpg","mimeType":"image/jpeg"}],"samplers":[{"wrapS":10497,"wrapT":10497}],"meshes":[{"primitives":[{"mode":4,"attributes":{"POSITION":1,"NORMAL":2,"TEXCOORD_0":3},"material":0,"indices":0}]},{"primitives":[{"mode":4,"attributes":{"POSITION":5,"NORMAL":6,"TEXCOORD_0":7},"material":1,"indices":4}]}],"accessors":[{"bufferView":0,"byteOffset":0,"componentType":5125,"count":8370,"type":"SCALAR"},{"bufferView":1,"byteOffset":0,"componentType":5126,"count":8094,"max":[3,29,6],"min":[-3,-29,-4.440892098500626e-16],"type":"VEC3"},{"bufferView":2,"byteOffset":0,"componentType":5126,"count":8094,"type":"VEC3"},{"bufferView":3,"byteOffset":0,"componentType":5126,"count":8094,"type":"VEC2"},{"bufferView":4,"byteOffset":0,"componentType":5125,"count":25452,"type":"SCALAR"},{"bufferView":5,"byteOffset":0,"componentType":5126,"count":23530,"max":[57.599998474121094,57.599998474121094,11.31639575958252],"min":[-57.599998474121094,-57.599998474121094,0],"type":"VEC3"},{"bufferView":6,"byteOffset":0,"componentType":5126,"count":23530,"type":"VEC3"},{"bufferView":7,"byteOffset":0,"componentType":5126,"count":23530,"type":"VEC2"}],"bufferViews":[{"buffer":0,"byteOffset":0,"byteLength":33480,"target":34963},{"buffer":0,"byteOffset":33480,"byteLength":97128,"target":34962},{"buffer":0,"byteOffset":130608,"byteLength":97128,"target":34962},{"buffer":0,"byteOffset":227736,"byteLength":64752,"target":34962},{"buffer":0,"byteOffset":292488,"byteLength":101808,"target":34963},{"buffer":0,"byteOffset":394296,"byteLength":282360,"target":34962},{"buffer":0,"byteOffset":676656,"byteLength":282360,"target":34962},{"buffer":0,"byteOffset":959016,"byteLength":188240,"target":34962}],"scene":0,"scenes":[{"nodes":[0,1],"name":"Astrolábio"}],"extensionsUsed":["KHR_texture_transform"],"buffers":[{"byteLength":1147256,"uri":"Astrolábio.bin"}]}