{"asset":{"version":"2.0","generator":"VECTARY"},"nodes":[{"translation":[0,0.0012118876933302901,2.220446049250313e-19],"scale":[0.001,0.001,0.001],"rotation":[-0.7071067811865475,0,0,0.7071067811865476],"name":"Box & Box 1 & Sphere","mesh":0},{"translation":[0,0,0],"scale":[0.001,0.001,0.001],"rotation":[-0.7071067811865475,0,0,0.7071067811865476],"name":"Cylinder","mesh":1}],"materials":[{"pbrMetallicRoughness":{"baseColorFactor":[1,1,1,1],"metallicRoughnessTexture":{"index":0,"extensions":{"KHR_texture_transform":{"offset":[0,0],"scale":[1,1],"rotation":0}},"texCoord":0},"metallicFactor":1,"roughnessFactor":0.45},"name":"Casa Blanca","emissiveFactor":[0,0,0],"alphaMode":"OPAQUE","doubleSided":false},{"pbrMetallicRoughness":{"baseColorFactor":[0.03287591694838383,0.010397802292555288,0.0009923743040743253,1],"metallicRoughnessTexture":{"index":1,"extensions":{"KHR_texture_transform":{"offset":[0,0],"scale":[1,1],"rotation":0}},"texCoord":0},"metallicFactor":1,"roughnessFactor":0.43},"name":"Butterfly Wing","emissiveFactor":[0,0,0],"alphaMode":"OPAQUE","doubleSided":false}],"textures":[{"sampler":0,"source":0},{"sampler":0,"source":1}],"images":[{"uri":"metal&roughnessTexture.jpg","mimeType":"image/jpeg"},{"uri":"metal&roughnessTexture_1.jpg","mimeType":"image/jpeg"}],"samplers":[{"wrapS":10497,"wrapT":10497}],"meshes":[{"primitives":[{"mode":4,"attributes":{"POSITION":1,"NORMAL":2,"TEXCOORD_0":3},"material":0,"indices":0}]},{"primitives":[{"mode":4,"attributes":{"POSITION":5,"NORMAL":6,"TEXCOORD_0":7},"material":1,"indices":4}]}],"accessors":[{"bufferView":0,"byteOffset":0,"componentType":5125,"count":5712,"type":"SCALAR"},{"bufferView":1,"byteOffset":0,"componentType":5126,"count":5475,"max":[50,2.5,99.87905883789062],"min":[-50,-2.5,0],"type":"VEC3"},{"bufferView":2,"byteOffset":0,"componentType":5126,"count":5475,"type":"VEC3"},{"bufferView":3,"byteOffset":0,"componentType":5126,"count":5475,"type":"VEC2"},{"bufferView":4,"byteOffset":0,"componentType":5125,"count":6528,"type":"SCALAR"},{"bufferView":5,"byteOffset":0,"componentType":5126,"count":1237,"max":[93.9000015258789,93.9000015258789,5.400000095367432],"min":[-93.9000015258789,-93.9000015258789,0],"type":"VEC3"},{"bufferView":6,"byteOffset":0,"componentType":5126,"count":1237,"type":"VEC3"},{"bufferView":7,"byteOffset":0,"componentType":5126,"count":1237,"type":"VEC2"}],"bufferViews":[{"buffer":0,"byteOffset":0,"byteLength":22848,"target":34963},{"buffer":0,"byteOffset":22848,"byteLength":65700,"target":34962},{"buffer":0,"byteOffset":88548,"byteLength":65700,"target":34962},{"buffer":0,"byteOffset":154248,"byteLength":43800,"target":34962},{"buffer":0,"byteOffset":198048,"byteLength":26112,"target":34963},{"buffer":0,"byteOffset":224160,"byteLength":14844,"target":34962},{"buffer":0,"byteOffset":239004,"byteLength":14844,"target":34962},{"buffer":0,"byteOffset":253848,"byteLength":9896,"target":34962}],"scene":0,"scenes":[{"nodes":[0,1],"name":"Project Name"}],"extensionsUsed":["KHR_texture_transform"],"buffers":[{"byteLength":263744,"uri":"ProjectName.bin"}]}