{"asset":{"version":"2.0","generator":"VECTARY"},"nodes":[{"translation":[0,0.09454515838623047,-0.0002741413116454865],"scale":[0.001,0.001,0.001],"rotation":[-0.7071067811865475,0,0,0.7071067811865476],"name":"Merged Objects 1","mesh":0}],"materials":[{"pbrMetallicRoughness":{"baseColorFactor":[0.5295232224172772,0.3066347662031576,0.0370285141619602,1],"metallicRoughnessTexture":{"index":0,"extensions":{"KHR_texture_transform":{"offset":[0,0],"scale":[12,1],"rotation":0}},"texCoord":0},"metallicFactor":1,"roughnessFactor":1},"name":"Aquarius","emissiveFactor":[0,0,0],"alphaMode":"OPAQUE","doubleSided":true}],"textures":[{"sampler":0,"source":0}],"images":[{"uri":"metal&metal.jpg","mimeType":"image/jpeg"}],"samplers":[{"wrapS":10497,"wrapT":10497}],"meshes":[{"primitives":[{"mode":4,"attributes":{"POSITION":1,"NORMAL":2,"TEXCOORD_0":3},"material":0,"indices":0}]}],"accessors":[{"bufferView":0,"byteOffset":0,"componentType":5125,"count":25407,"type":"SCALAR"},{"bufferView":1,"byteOffset":0,"componentType":5126,"count":24065,"max":[57.5999755859375,57.5999755859375,11.316390991210938],"min":[-57.5999755859375,-57.5999755859375,0],"type":"VEC3"},{"bufferView":2,"byteOffset":0,"componentType":5126,"count":24065,"type":"VEC3"},{"bufferView":3,"byteOffset":0,"componentType":5126,"count":24065,"type":"VEC2"}],"bufferViews":[{"buffer":0,"byteOffset":0,"byteLength":101628,"target":34963},{"buffer":0,"byteOffset":101628,"byteLength":288780,"target":34962},{"buffer":0,"byteOffset":390408,"byteLength":288780,"target":34962},{"buffer":0,"byteOffset":679188,"byteLength":192520,"target":34962}],"scene":0,"scenes":[{"nodes":[0],"name":"Astrolábio"}],"extensionsUsed":["KHR_texture_transform"],"buffers":[{"byteLength":871708,"uri":"Astrolábio.bin"}]}