{"asset":{"version":"2.0","generator":"VECTARY"},"nodes":[{"translation":[0,0.10492597961425781,-0.0020686855316161897],"scale":[0.001,0.001,0.001],"rotation":[-0.7071067811865475,0,0,0.7071067811865476],"name":"Merged Objects","mesh":0},{"translation":[0,0.09454515838623047,-0.0002741413116454865],"scale":[0.001,0.001,0.001],"rotation":[-0.7071067811865475,0,0,0.7071067811865476],"name":"Merged Objects 1","mesh":1}],"materials":[{"pbrMetallicRoughness":{"baseColorFactor":[0.25902733248960613,0.17013837322331243,0.05818717747368543,1],"metallicFactor":1,"roughnessFactor":1},"name":"Soft Royal","normalTexture":{"index":0,"scale":1,"extensions":{"KHR_texture_transform":{"offset":[0,0],"scale":[1,1],"rotation":0}},"texCoord":0},"emissiveFactor":[0,0,0],"alphaMode":"OPAQUE","doubleSided":false},{"pbrMetallicRoughness":{"baseColorFactor":[0.5604991522043282,0.41514809165590655,0.18354899846495082,1],"metallicFactor":1,"roughnessFactor":1},"name":"Aquarius","normalTexture":{"index":1,"scale":0.47,"extensions":{"KHR_texture_transform":{"offset":[0,0],"scale":[12,1],"rotation":0}},"texCoord":0},"emissiveFactor":[0,0,0],"alphaMode":"OPAQUE","doubleSided":true}],"textures":[{"sampler":0,"source":0},{"sampler":0,"source":1}],"images":[{"uri":"texture.jpg","mimeType":"image/jpeg"},{"uri":"texture_1.jpg","mimeType":"image/jpeg"}],"samplers":[{"wrapS":10497,"wrapT":10497}],"meshes":[{"primitives":[{"mode":4,"attributes":{"POSITION":1,"NORMAL":2,"TEXCOORD_0":3},"material":0,"indices":0}]},{"primitives":[{"mode":4,"attributes":{"POSITION":5,"NORMAL":6,"TEXCOORD_0":7},"material":1,"indices":4}]}],"accessors":[{"bufferView":0,"byteOffset":0,"componentType":5125,"count":8370,"type":"SCALAR"},{"bufferView":1,"byteOffset":0,"componentType":5126,"count":8092,"max":[4.032879829406738,38.98450469970703,8.065757751464844],"min":[-4.032879829406738,-38.98450469970703,0],"type":"VEC3"},{"bufferView":2,"byteOffset":0,"componentType":5126,"count":8092,"type":"VEC3"},{"bufferView":3,"byteOffset":0,"componentType":5126,"count":8092,"type":"VEC2"},{"bufferView":4,"byteOffset":0,"componentType":5125,"count":25407,"type":"SCALAR"},{"bufferView":5,"byteOffset":0,"componentType":5126,"count":24065,"max":[57.5999755859375,57.5999755859375,11.316390991210938],"min":[-57.5999755859375,-57.5999755859375,0],"type":"VEC3"},{"bufferView":6,"byteOffset":0,"componentType":5126,"count":24065,"type":"VEC3"},{"bufferView":7,"byteOffset":0,"componentType":5126,"count":24065,"type":"VEC2"}],"bufferViews":[{"buffer":0,"byteOffset":0,"byteLength":33480,"target":34963},{"buffer":0,"byteOffset":33480,"byteLength":97104,"target":34962},{"buffer":0,"byteOffset":130584,"byteLength":97104,"target":34962},{"buffer":0,"byteOffset":227688,"byteLength":64736,"target":34962},{"buffer":0,"byteOffset":292424,"byteLength":101628,"target":34963},{"buffer":0,"byteOffset":394052,"byteLength":288780,"target":34962},{"buffer":0,"byteOffset":682832,"byteLength":288780,"target":34962},{"buffer":0,"byteOffset":971612,"byteLength":192520,"target":34962}],"scene":0,"scenes":[{"nodes":[0,1],"name":"Astrolábio"}],"extensionsUsed":["KHR_texture_transform"],"buffers":[{"byteLength":1164132,"uri":"Astrolábio.bin"}]}