{"asset":{"version":"2.0","generator":"VECTARY"},"nodes":[{"translation":[0,0.10492597961425781,-0.0020686855316161897],"scale":[0.001,0.001,0.001],"rotation":[-0.7071067811865475,0,0,0.7071067811865476],"name":"Merged Objects","mesh":0}],"materials":[{"pbrMetallicRoughness":{"baseColorFactor":[0.04777575355617064,0.02201299491933654,0.0006381828421670219,1],"metallicRoughnessTexture":{"index":0,"extensions":{"KHR_texture_transform":{"offset":[0,0],"scale":[1,1],"rotation":0}},"texCoord":0},"metallicFactor":1,"roughnessFactor":1},"name":"Serenade","emissiveFactor":[0,0,0],"alphaMode":"OPAQUE","doubleSided":false}],"textures":[{"sampler":0,"source":0}],"images":[{"uri":"metallicTexture&metal.jpg","mimeType":"image/jpeg"}],"samplers":[{"wrapS":10497,"wrapT":10497}],"meshes":[{"primitives":[{"mode":4,"attributes":{"POSITION":1,"NORMAL":2,"TEXCOORD_0":3},"material":0,"indices":0}]}],"accessors":[{"bufferView":0,"byteOffset":0,"componentType":5125,"count":8370,"type":"SCALAR"},{"bufferView":1,"byteOffset":0,"componentType":5126,"count":8092,"max":[4.032879829406738,38.98450469970703,8.065757751464844],"min":[-4.032879829406738,-38.98450469970703,0],"type":"VEC3"},{"bufferView":2,"byteOffset":0,"componentType":5126,"count":8092,"type":"VEC3"},{"bufferView":3,"byteOffset":0,"componentType":5126,"count":8092,"type":"VEC2"}],"bufferViews":[{"buffer":0,"byteOffset":0,"byteLength":33480,"target":34963},{"buffer":0,"byteOffset":33480,"byteLength":97104,"target":34962},{"buffer":0,"byteOffset":130584,"byteLength":97104,"target":34962},{"buffer":0,"byteOffset":227688,"byteLength":64736,"target":34962}],"scene":0,"scenes":[{"nodes":[0],"name":"Astrolábio"}],"extensionsUsed":["KHR_texture_transform"],"buffers":[{"byteLength":292424,"uri":"Astrolábio.bin"}]}