{"asset":{"version":"2.0","generator":"VECTARY"},"nodes":[{"translation":[0.040183700023401624,1.4210854715202004e-17,-0.06779720293590824],"scale":[0.001,0.001,0.001],"rotation":[-0.7071067811865475,0,0,0.7071067811865476],"name":"Cylinder 2","mesh":0},{"translation":[0.011029010335474218,0.02047938189617987,-0.06796035467056054],"scale":[0.001,0.001,0.001],"rotation":[-0.5,0.5,-0.4999999999999999,0.5000000000000001],"name":"Cylinder 1","mesh":1},{"translation":[0,-0.009866891480108678,-0.05616494431484723],"scale":[0.0016494487929354332,0.0016494487929354332,0.0016494487929354332],"rotation":[-0.7071067811865475,0,0,0.7071067811865476],"name":"Tube & Box 1","mesh":2},{"translation":[-0.002795482156119675,-0.010383747073368711,-0.1103917690464998],"scale":[0.001,0.001,0.001],"rotation":[-0.7071067811865475,0,0,0.7071067811865476],"name":"Cylinder","mesh":3},{"translation":[0.0393024954198376,-0.008407490328460727,-0.07110352312420708],"scale":[0.0010776985686925982,0.0010776985686925982,0.001077698568692598],"rotation":[-0.6658590158500476,0.2379743074602928,0.23797430746029286,0.6658590158500477],"name":"Box 5","mesh":4},{"translation":[-0.04531403090140708,-0.008407490328460733,-0.06740294225145763],"scale":[0.001077698568692598,0.001077698568692598,0.001077698568692598],"rotation":[-0.6745326556263118,-0.21214546069552226,-0.2121454606955223,0.6745326556263119],"name":"Box 4","mesh":5},{"translation":[-0.02286474840801563,-0.008407490328460733,-0.053834844283136764],"scale":[0.001077698568692598,0.001077698568692598,0.001077698568692598],"rotation":[-0.7041147185274127,-0.06498048286264334,-0.06498048286264335,0.7041147185274128],"name":"Box 3","mesh":6},{"translation":[0.019443514752606774,-0.008407490328460733,-0.053834844283136764],"scale":[0.001077698568692598,0.001077698568692598,0.001077698568692598],"rotation":[-0.7018260753963419,0.08625636146840479,0.0862563614684048,0.701826075396342],"name":"Box 2","mesh":7},{"translation":[-0.002795482156119675,-0.008407490328460736,-0.04123269703224071],"scale":[0.001077698568692598,0.001077698568692598,0.001077698568692598],"rotation":[-0.7071067811865475,0,0,0.7071067811865476],"name":"Box","mesh":8}],"materials":[{"pbrMetallicRoughness":{"baseColorFactor":[0.16364067148528988,0.1668722718907655,0.2195197180748679,1],"metallicRoughnessTexture":{"index":0,"extensions":{"KHR_texture_transform":{"offset":[0,0],"scale":[1,1],"rotation":0}},"texCoord":0},"metallicFactor":0,"roughnessFactor":1},"name":"Rosetta","emissiveFactor":[0,0,0],"alphaMode":"OPAQUE","doubleSided":false},{"pbrMetallicRoughness":{"baseColorFactor":[0.09868919754109445,0.06003160713631324,0.042987010162657116,1],"metallicRoughnessTexture":{"index":1,"extensions":{"KHR_texture_transform":{"offset":[0,0],"scale":[1,1],"rotation":0}},"texCoord":0},"metallicFactor":0.42,"roughnessFactor":1},"name":"Cosmic Aura","emissiveFactor":[0,0,0],"alphaMode":"OPAQUE","doubleSided":false},{"pbrMetallicRoughness":{"baseColorFactor":[0.25902733248960613,0.1390224537347025,0.028991186547107816,1],"metallicRoughnessTexture":{"index":2,"extensions":{"KHR_texture_transform":{"offset":[0,0],"scale":[1,1],"rotation":0}},"texCoord":0},"metallicFactor":0.52,"roughnessFactor":1},"name":"Jasper","emissiveFactor":[0,0,0],"alphaMode":"OPAQUE","doubleSided":false},{"pbrMetallicRoughness":{"baseColorFactor":[0.07176144884623908,0.010397802292555288,0.010397802292555288,1],"metallicRoughnessTexture":{"index":3,"extensions":{"KHR_texture_transform":{"offset":[0,0],"scale":[1,1],"rotation":0}},"texCoord":0},"metallicFactor":1,"roughnessFactor":1},"name":"Diamond","emissiveFactor":[0,0,0],"alphaMode":"OPAQUE","doubleSided":false},{"pbrMetallicRoughness":{"baseColorFactor":[0.38891025653905886,0.38891025653905886,0.38891025653905886,1],"metallicRoughnessTexture":{"index":4,"extensions":{"KHR_texture_transform":{"offset":[0,0],"scale":[1,1],"rotation":0}},"texCoord":0},"metallicFactor":0,"roughnessFactor":1},"name":"Venus 2","emissiveFactor":[0,0,0],"alphaMode":"OPAQUE","doubleSided":false},{"pbrMetallicRoughness":{"baseColorFactor":[0.38891025653905886,0.38891025653905886,0.38891025653905886,1],"metallicFactor":0,"roughnessFactor":0.2},"name":"Venus 1","emissiveFactor":[0,0,0],"alphaMode":"OPAQUE","doubleSided":false},{"pbrMetallicRoughness":{"baseColorFactor":[0.38891025653905886,0.38891025653905886,0.38891025653905886,1],"metallicRoughnessTexture":{"index":5,"extensions":{"KHR_texture_transform":{"offset":[0,0],"scale":[1,1],"rotation":0}},"texCoord":0},"metallicFactor":0,"roughnessFactor":1},"name":"Venus","emissiveFactor":[0,0,0],"alphaMode":"OPAQUE","doubleSided":false}],"textures":[{"sampler":0,"source":0},{"sampler":0,"source":1},{"sampler":0,"source":2},{"sampler":0,"source":3},{"sampler":0,"source":4},{"sampler":0,"source":5}],"images":[{"uri":"metallicTexture&metal.jpg","mimeType":"image/jpeg"},{"uri":"metallicTexture&metal_1.jpg","mimeType":"image/jpeg"},{"uri":"metallicTexture&metal_2.jpg","mimeType":"image/jpeg"},{"uri":"metal&metal.jpg","mimeType":"image/jpeg"},{"uri":"metallicTexture&metal_3.jpg","mimeType":"image/jpeg"},{"uri":"metallicTexture&metal_4.jpg","mimeType":"image/jpeg"}],"samplers":[{"wrapS":10497,"wrapT":10497}],"meshes":[{"primitives":[{"mode":4,"attributes":{"POSITION":1,"NORMAL":2,"TEXCOORD_0":3},"material":0,"indices":0}]},{"primitives":[{"mode":4,"attributes":{"POSITION":5,"NORMAL":6,"TEXCOORD_0":7},"material":1,"indices":4}]},{"primitives":[{"mode":4,"attributes":{"POSITION":9,"NORMAL":10,"TEXCOORD_0":11},"material":2,"indices":8}]},{"primitives":[{"mode":4,"attributes":{"POSITION":13,"NORMAL":14,"TEXCOORD_0":15},"material":3,"indices":12}]},{"primitives":[{"mode":4,"attributes":{"POSITION":17,"NORMAL":18,"TEXCOORD_0":19},"material":4,"indices":16}]},{"primitives":[{"mode":4,"attributes":{"POSITION":21,"NORMAL":22,"TEXCOORD_0":23},"material":4,"indices":20}]},{"primitives":[{"mode":4,"attributes":{"POSITION":25,"NORMAL":26},"material":5,"indices":24}]},{"primitives":[{"mode":4,"attributes":{"POSITION":28,"NORMAL":29},"material":5,"indices":27}]},{"primitives":[{"mode":4,"attributes":{"POSITION":31,"NORMAL":32,"TEXCOORD_0":33},"material":6,"indices":30}]}],"accessors":[{"bufferView":0,"byteOffset":0,"componentType":5125,"count":6912,"type":"SCALAR"},{"bufferView":1,"byteOffset":0,"componentType":5126,"count":1302,"max":[3.9000000953674316,3.9000000953674316,14.300000190734863],"min":[-3.9000000953674316,-3.9000000953674316,0],"type":"VEC3"},{"bufferView":2,"byteOffset":0,"componentType":5126,"count":1302,"type":"VEC3"},{"bufferView":3,"byteOffset":0,"componentType":5126,"count":1302,"type":"VEC2"},{"bufferView":4,"byteOffset":0,"componentType":5125,"count":6912,"type":"SCALAR"},{"bufferView":5,"byteOffset":0,"componentType":5126,"count":1302,"max":[8.800000190734863,8.800000190734863,56],"min":[-8.800000190734863,-8.800000190734863,0],"type":"VEC3"},{"bufferView":6,"byteOffset":0,"componentType":5126,"count":1302,"type":"VEC3"},{"bufferView":7,"byteOffset":0,"componentType":5126,"count":1302,"type":"VEC2"},{"bufferView":8,"byteOffset":0,"componentType":5125,"count":7116,"type":"SCALAR"},{"bufferView":9,"byteOffset":0,"componentType":5126,"count":6718,"max":[50.64730453491211,-3.1082372665405273,8.300000190734863],"min":[-50.64730453491211,-50.79999923706055,0],"type":"VEC3"},{"bufferView":10,"byteOffset":0,"componentType":5126,"count":6718,"type":"VEC3"},{"bufferView":11,"byteOffset":0,"componentType":5126,"count":6718,"type":"VEC2"},{"bufferView":12,"byteOffset":0,"componentType":5125,"count":768,"type":"SCALAR"},{"bufferView":13,"byteOffset":0,"componentType":5126,"count":260,"max":[27.100000381469727,27.100000381469727,15],"min":[-27.100000381469727,-27.100000381469727,0],"type":"VEC3"},{"bufferView":14,"byteOffset":0,"componentType":5126,"count":260,"type":"VEC3"},{"bufferView":15,"byteOffset":0,"componentType":5126,"count":260,"type":"VEC2"},{"bufferView":16,"byteOffset":0,"componentType":5125,"count":36,"type":"SCALAR"},{"bufferView":17,"byteOffset":0,"componentType":5126,"count":24,"max":[5,43,9],"min":[-5,-43,0],"type":"VEC3"},{"bufferView":18,"byteOffset":0,"componentType":5126,"count":24,"type":"VEC3"},{"bufferView":19,"byteOffset":0,"componentType":5126,"count":24,"type":"VEC2"},{"bufferView":20,"byteOffset":0,"componentType":5125,"count":36,"type":"SCALAR"},{"bufferView":21,"byteOffset":0,"componentType":5126,"count":24,"max":[5,43,9],"min":[-5,-43,0],"type":"VEC3"},{"bufferView":22,"byteOffset":0,"componentType":5126,"count":24,"type":"VEC3"},{"bufferView":23,"byteOffset":0,"componentType":5126,"count":24,"type":"VEC2"},{"bufferView":24,"byteOffset":0,"componentType":5125,"count":36,"type":"SCALAR"},{"bufferView":25,"byteOffset":0,"componentType":5126,"count":24,"max":[6,57,9],"min":[-6,-57,0],"type":"VEC3"},{"bufferView":26,"byteOffset":0,"componentType":5126,"count":24,"type":"VEC3"},{"bufferView":27,"byteOffset":0,"componentType":5125,"count":36,"type":"SCALAR"},{"bufferView":28,"byteOffset":0,"componentType":5126,"count":24,"max":[6,57,9],"min":[-6,-57,0],"type":"VEC3"},{"bufferView":29,"byteOffset":0,"componentType":5126,"count":24,"type":"VEC3"},{"bufferView":30,"byteOffset":0,"componentType":5125,"count":36,"type":"SCALAR"},{"bufferView":31,"byteOffset":0,"componentType":5126,"count":24,"max":[6.5,55,9],"min":[-6.5,-55,0],"type":"VEC3"},{"bufferView":32,"byteOffset":0,"componentType":5126,"count":24,"type":"VEC3"},{"bufferView":33,"byteOffset":0,"componentType":5126,"count":24,"type":"VEC2"}],"bufferViews":[{"buffer":0,"byteOffset":0,"byteLength":27648,"target":34963},{"buffer":0,"byteOffset":27648,"byteLength":15624,"target":34962},{"buffer":0,"byteOffset":43272,"byteLength":15624,"target":34962},{"buffer":0,"byteOffset":58896,"byteLength":10416,"target":34962},{"buffer":0,"byteOffset":69312,"byteLength":27648,"target":34963},{"buffer":0,"byteOffset":96960,"byteLength":15624,"target":34962},{"buffer":0,"byteOffset":112584,"byteLength":15624,"target":34962},{"buffer":0,"byteOffset":128208,"byteLength":10416,"target":34962},{"buffer":0,"byteOffset":138624,"byteLength":28464,"target":34963},{"buffer":0,"byteOffset":167088,"byteLength":80616,"target":34962},{"buffer":0,"byteOffset":247704,"byteLength":80616,"target":34962},{"buffer":0,"byteOffset":328320,"byteLength":53744,"target":34962},{"buffer":0,"byteOffset":382064,"byteLength":3072,"target":34963},{"buffer":0,"byteOffset":385136,"byteLength":3120,"target":34962},{"buffer":0,"byteOffset":388256,"byteLength":3120,"target":34962},{"buffer":0,"byteOffset":391376,"byteLength":2080,"target":34962},{"buffer":0,"byteOffset":393456,"byteLength":144,"target":34963},{"buffer":0,"byteOffset":393600,"byteLength":288,"target":34962},{"buffer":0,"byteOffset":393888,"byteLength":288,"target":34962},{"buffer":0,"byteOffset":394176,"byteLength":192,"target":34962},{"buffer":0,"byteOffset":394368,"byteLength":144,"target":34963},{"buffer":0,"byteOffset":394512,"byteLength":288,"target":34962},{"buffer":0,"byteOffset":394800,"byteLength":288,"target":34962},{"buffer":0,"byteOffset":395088,"byteLength":192,"target":34962},{"buffer":0,"byteOffset":395280,"byteLength":144,"target":34963},{"buffer":0,"byteOffset":395424,"byteLength":288,"target":34962},{"buffer":0,"byteOffset":395712,"byteLength":288,"target":34962},{"buffer":0,"byteOffset":396000,"byteLength":144,"target":34963},{"buffer":0,"byteOffset":396144,"byteLength":288,"target":34962},{"buffer":0,"byteOffset":396432,"byteLength":288,"target":34962},{"buffer":0,"byteOffset":396720,"byteLength":144,"target":34963},{"buffer":0,"byteOffset":396864,"byteLength":288,"target":34962},{"buffer":0,"byteOffset":397152,"byteLength":288,"target":34962},{"buffer":0,"byteOffset":397440,"byteLength":192,"target":34962}],"scene":0,"scenes":[{"nodes":[0,1,2,3,4,5,6,7,8],"name":"Sextant"}],"extensionsUsed":["KHR_texture_transform"],"buffers":[{"byteLength":397632,"uri":"Sextant.bin"}]}