{"asset":{"version":"2.0","generator":"VECTARY"},"nodes":[{"translation":[-0.005964328149016154,0.09242920856285831,-0.04847722769452363],"scale":[0.001,0.001,0.001],"rotation":[-0.7071067811865475,0,0,0.7071067811865476],"name":"Group","children":[1,2,3,4,5]},{"translation":[99.78800892706373,31.94721353657583,25.78591431476589],"scale":[2.483295686284503,2.483295686284503,2.483295686284503],"rotation":[0,0,0,1],"name":"Cylinder 2","mesh":0},{"translation":[27.38829379007032,32.3523675354477,76.6422750353223],"scale":[2.483295686284503,2.483295686284503,2.483295686284503],"rotation":[0,0.7071067811865475,0,0.7071067811865476],"name":"Cylinder 1","mesh":1},{"translation":[-4.440892098500626e-15,3.0608758811493146,1.283505265174675],"scale":[4.096069072243742,4.096069072243742,4.096069072243742],"rotation":[0,0,0,1],"name":"Tube & Box 1","mesh":2},{"translation":[-6.942008779377296,137.72211581816794,0],"scale":[2.483295686284503,2.483295686284503,2.483295686284503],"rotation":[0,0,0,1],"name":"Cylinder","mesh":3},{"translation":[-112.52813746562684,30.96814767960805,4.907629849620619],"scale":[2.6762442067493115,2.6762442067493115,2.6762442067493115],"rotation":[0,0,-0.300018987711496,0.9539332298502706],"name":"Box 4 & Box 5 & Box 2 & Box & Box 3","mesh":4}],"materials":[{"pbrMetallicRoughness":{"baseColorFactor":[0.16364067148528988,0.1668722718907655,0.2195197180748679,1],"metallicRoughnessTexture":{"index":0,"extensions":{"KHR_texture_transform":{"offset":[0,0],"scale":[1,1],"rotation":0}},"texCoord":0},"metallicFactor":0,"roughnessFactor":1},"name":"Rosetta","emissiveFactor":[0,0,0],"alphaMode":"OPAQUE","doubleSided":false},{"pbrMetallicRoughness":{"baseColorFactor":[0.09868919754109445,0.06003160713631324,0.042987010162657116,1],"metallicRoughnessTexture":{"index":1,"extensions":{"KHR_texture_transform":{"offset":[0,0],"scale":[1,1],"rotation":0}},"texCoord":0},"metallicFactor":0.42,"roughnessFactor":1},"name":"Cosmic Aura","emissiveFactor":[0,0,0],"alphaMode":"OPAQUE","doubleSided":false},{"pbrMetallicRoughness":{"baseColorFactor":[0.25902733248960613,0.1390224537347025,0.028991186547107816,1],"metallicRoughnessTexture":{"index":2,"extensions":{"KHR_texture_transform":{"offset":[0,0],"scale":[1,1],"rotation":0}},"texCoord":0},"metallicFactor":0.52,"roughnessFactor":1},"name":"Jasper","emissiveFactor":[0,0,0],"alphaMode":"OPAQUE","doubleSided":false},{"pbrMetallicRoughness":{"baseColorFactor":[0.07176144884623908,0.010397802292555288,0.010397802292555288,1],"metallicRoughnessTexture":{"index":3,"extensions":{"KHR_texture_transform":{"offset":[0,0],"scale":[1,1],"rotation":0}},"texCoord":0},"metallicFactor":1,"roughnessFactor":1},"name":"Diamond","emissiveFactor":[0,0,0],"alphaMode":"OPAQUE","doubleSided":false},{"pbrMetallicRoughness":{"baseColorFactor":[0.38891025653905886,0.38891025653905886,0.38891025653905886,1],"metallicRoughnessTexture":{"index":4,"extensions":{"KHR_texture_transform":{"offset":[0,0],"scale":[1,1],"rotation":0}},"texCoord":0},"metallicFactor":0,"roughnessFactor":1},"name":"Venus 2","emissiveFactor":[0,0,0],"alphaMode":"OPAQUE","doubleSided":false}],"textures":[{"sampler":0,"source":0},{"sampler":0,"source":1},{"sampler":0,"source":2},{"sampler":0,"source":3},{"sampler":0,"source":4}],"images":[{"uri":"metallicTexture&metal.jpg","mimeType":"image/jpeg"},{"uri":"metallicTexture&metal_2.jpg","mimeType":"image/jpeg"},{"uri":"metallicTexture&metal_3.jpg","mimeType":"image/jpeg"},{"uri":"metal&metal.jpg","mimeType":"image/jpeg"},{"uri":"metallicTexture&metal_1.jpg","mimeType":"image/jpeg"}],"samplers":[{"wrapS":10497,"wrapT":10497}],"meshes":[{"primitives":[{"mode":4,"attributes":{"POSITION":1,"NORMAL":2,"TEXCOORD_0":3},"material":0,"indices":0}]},{"primitives":[{"mode":4,"attributes":{"POSITION":5,"NORMAL":6,"TEXCOORD_0":7},"material":1,"indices":4}]},{"primitives":[{"mode":4,"attributes":{"POSITION":9,"NORMAL":10,"TEXCOORD_0":11},"material":2,"indices":8}]},{"primitives":[{"mode":4,"attributes":{"POSITION":13,"NORMAL":14,"TEXCOORD_0":15},"material":3,"indices":12}]},{"primitives":[{"mode":4,"attributes":{"POSITION":17,"NORMAL":18,"TEXCOORD_0":19},"material":4,"indices":16}]}],"accessors":[{"bufferView":0,"byteOffset":0,"componentType":5125,"count":6912,"type":"SCALAR"},{"bufferView":1,"byteOffset":0,"componentType":5126,"count":1302,"max":[3.9000000953674316,3.9000000953674316,14.300000190734863],"min":[-3.9000000953674316,-3.9000000953674316,0],"type":"VEC3"},{"bufferView":2,"byteOffset":0,"componentType":5126,"count":1302,"type":"VEC3"},{"bufferView":3,"byteOffset":0,"componentType":5126,"count":1302,"type":"VEC2"},{"bufferView":4,"byteOffset":0,"componentType":5125,"count":6912,"type":"SCALAR"},{"bufferView":5,"byteOffset":0,"componentType":5126,"count":1302,"max":[8.800000190734863,8.800000190734863,56],"min":[-8.800000190734863,-8.800000190734863,0],"type":"VEC3"},{"bufferView":6,"byteOffset":0,"componentType":5126,"count":1302,"type":"VEC3"},{"bufferView":7,"byteOffset":0,"componentType":5126,"count":1302,"type":"VEC2"},{"bufferView":8,"byteOffset":0,"componentType":5125,"count":7116,"type":"SCALAR"},{"bufferView":9,"byteOffset":0,"componentType":5126,"count":6718,"max":[50.64730453491211,-3.1082372665405273,8.300000190734863],"min":[-50.64730453491211,-50.79999923706055,0],"type":"VEC3"},{"bufferView":10,"byteOffset":0,"componentType":5126,"count":6718,"type":"VEC3"},{"bufferView":11,"byteOffset":0,"componentType":5126,"count":6718,"type":"VEC2"},{"bufferView":12,"byteOffset":0,"componentType":5125,"count":768,"type":"SCALAR"},{"bufferView":13,"byteOffset":0,"componentType":5126,"count":260,"max":[27.100000381469727,27.100000381469727,15],"min":[-27.100000381469727,-27.100000381469727,0],"type":"VEC3"},{"bufferView":14,"byteOffset":0,"componentType":5126,"count":260,"type":"VEC3"},{"bufferView":15,"byteOffset":0,"componentType":5126,"count":260,"type":"VEC2"},{"bufferView":16,"byteOffset":0,"componentType":5125,"count":324,"type":"SCALAR"},{"bufferView":17,"byteOffset":0,"componentType":5126,"count":192,"max":[105.1586685180664,66.04191589355469,9],"min":[-5,-52.79637145996094,0],"type":"VEC3"},{"bufferView":18,"byteOffset":0,"componentType":5126,"count":192,"type":"VEC3"},{"bufferView":19,"byteOffset":0,"componentType":5126,"count":192,"type":"VEC2"}],"bufferViews":[{"buffer":0,"byteOffset":0,"byteLength":27648,"target":34963},{"buffer":0,"byteOffset":27648,"byteLength":15624,"target":34962},{"buffer":0,"byteOffset":43272,"byteLength":15624,"target":34962},{"buffer":0,"byteOffset":58896,"byteLength":10416,"target":34962},{"buffer":0,"byteOffset":69312,"byteLength":27648,"target":34963},{"buffer":0,"byteOffset":96960,"byteLength":15624,"target":34962},{"buffer":0,"byteOffset":112584,"byteLength":15624,"target":34962},{"buffer":0,"byteOffset":128208,"byteLength":10416,"target":34962},{"buffer":0,"byteOffset":138624,"byteLength":28464,"target":34963},{"buffer":0,"byteOffset":167088,"byteLength":80616,"target":34962},{"buffer":0,"byteOffset":247704,"byteLength":80616,"target":34962},{"buffer":0,"byteOffset":328320,"byteLength":53744,"target":34962},{"buffer":0,"byteOffset":382064,"byteLength":3072,"target":34963},{"buffer":0,"byteOffset":385136,"byteLength":3120,"target":34962},{"buffer":0,"byteOffset":388256,"byteLength":3120,"target":34962},{"buffer":0,"byteOffset":391376,"byteLength":2080,"target":34962},{"buffer":0,"byteOffset":393456,"byteLength":1296,"target":34963},{"buffer":0,"byteOffset":394752,"byteLength":2304,"target":34962},{"buffer":0,"byteOffset":397056,"byteLength":2304,"target":34962},{"buffer":0,"byteOffset":399360,"byteLength":1536,"target":34962}],"scene":0,"scenes":[{"nodes":[0],"name":"Sextant"}],"extensionsUsed":["KHR_texture_transform"],"buffers":[{"byteLength":400896,"uri":"Sextant.bin"}]}